<?xml version="1.0" encoding="utf-8"?>
<!-- Generator: Adobe Illustrator 25.0.1, SVG Export Plug-In . SVG Version: 6.00 Build 0)  -->
<svg version="1.0" id="Layer_1" xmlns="http://www.w3.org/2000/svg" xmlns:xlink="http://www.w3.org/1999/xlink" x="0px" y="0px"
	 viewBox="0 0 246.8 169.2" style="enable-background:new 0 0 246.8 169.2;" xml:space="preserve">
<style type="text/css">
	.st0{fill:#FFFFFF;}
	.st1{fill:#231F20;}
</style>
<path class="st0" d="M156.1,77.2c0.1-1.8-0.5-3.6-1.5-5c-1-1.3-2.9-1.9-5.6-1.9h-2.9v13.6h2.1c2.6,0,4.6-0.5,5.9-1.6
	S156.1,79.6,156.1,77.2z"/>
<path class="st0" d="M58.3,89.8V73.9c-0.1-0.9,0.1-1.8,0.5-2.7c0.3-0.6,1-0.9,1.7-0.9h1.1v-0.7h-8.4v0.8h1.2
	c0.7-0.1,1.4,0.2,1.8,0.8c0.5,0.8,0.7,1.8,0.6,2.7V90c0.2,2.3-0.6,4.6-2.2,6.3c-1.3,1.4-3.1,2.2-5,2.2c-2.9,0.3-4.8-0.8-5.9-2.5
	c-1-1.6-1.6-4-1.6-7.2V70.4h3.4v-0.8H32.2v0.8h3.3v19.2c-0.1,2.9,1,5.7,3.1,7.7c2.3,2,5.3,3,8.3,2.8c3.8,0,6.6-0.9,8.4-2.8
	C57.4,95.3,58.4,92.6,58.3,89.8z"/>
<path class="st0" d="M63.2,96.9c0,1.7,1.3,3,3,3s3-1.3,3-3c0-1.6-1.3-3-2.9-3h-0.1C64.5,93.9,63.2,95.2,63.2,96.9L63.2,96.9z"/>
<path class="st0" d="M199.9,84.6c0,2.3,0.2,4.6,0.6,6.9c0.4,2,1.2,4,2.5,5.6c1.3,1.6,3.3,2.5,5.4,2.4c2.1,0.1,4.1-0.8,5.4-2.4
	c1.3-1.7,2.2-3.6,2.6-5.7c0.4-2.3,0.7-4.5,0.7-6.8c0-2.3-0.2-4.6-0.6-6.9c-0.4-2.1-1.2-4-2.5-5.6c-1.3-1.6-3.4-2.5-5.5-2.4
	c-2.1-0.1-4.1,0.8-5.4,2.4c-1.3,1.7-2.2,3.6-2.6,5.7C200.1,80,199.8,82.3,199.9,84.6z"/>
<path class="st0" d="M97.2,83.9c1.4-1.1,2.1-3,2.1-5.6c0-2.7-0.6-4.8-1.9-6.1c-1.3-1.3-3.2-1.9-5.7-1.9h-2.6v14.3
	c1,0.6,2.1,0.9,3.3,0.9C94.1,85.5,95.8,84.9,97.2,83.9z"/>
<path class="st0" d="M112.5,84.6c0,2.3,0.2,4.6,0.6,6.9c0.4,2,1.2,4,2.5,5.6c1.3,1.6,3.3,2.5,5.4,2.4c2.1,0.1,4.1-0.8,5.4-2.4
	c1.3-1.7,2.2-3.6,2.6-5.7c0.4-2.3,0.7-4.5,0.7-6.8c0-2.3-0.2-4.6-0.6-6.9c-0.4-2.1-1.2-4-2.5-5.6c-1.3-1.6-3.3-2.5-5.4-2.4
	c-2.1-0.1-4.1,0.8-5.4,2.4c-1.3,1.7-2.2,3.6-2.6,5.7C112.7,80,112.5,82.3,112.5,84.6z"/>
<path class="st0" d="M80.6,99.6h12.8v-0.7h-4.3V85.4c1.3,0.5,2.6,0.8,4,0.7c2.7,0.1,5.3-0.7,7.6-2.1c2.1-1.3,3.4-3.7,3.2-6.2
	c0-2.9-1-5-3-6.3c-2.5-1.4-5.3-2.1-8.2-2H80.6v0.7h4.2v28.6h-4.2V99.6z M89.1,84.7V70.4h2.6c2.6,0,4.5,0.6,5.7,1.9s1.9,3.3,1.9,6
	s-0.7,4.4-2.1,5.6c-1.3,1.1-3,1.7-4.7,1.7c-0.6,0-1.3-0.1-1.8-0.3C90.1,85.1,89.6,84.9,89.1,84.7z"/>
<path class="st1" d="M80.6,99.6h12.8v-0.7h-4.3V85.4c1.3,0.5,2.6,0.8,4,0.7c2.7,0.1,5.3-0.7,7.6-2.1c2.1-1.3,3.4-3.7,3.2-6.2
	c0-2.9-1-5-3-6.3c-2.5-1.4-5.3-2.1-8.2-2H80.6v0.7h4.2v28.6h-4.2V99.6z M89.1,84.7V70.4h2.6c2.6,0,4.5,0.6,5.7,1.9s1.9,3.3,1.9,6
	s-0.7,4.4-2.1,5.6c-1.3,1.1-3,1.7-4.7,1.7c-0.6,0-1.3-0.1-1.8-0.3C90.1,85.1,89.6,84.9,89.1,84.7z"/>
<path class="st0" d="M111.7,73.6c-5.3,6.4-5.3,15.6,0,22c4.1,5.2,11.7,6.1,16.9,2c0.7-0.6,1.4-1.2,2-2c5.3-6.4,5.3-15.6,0-22
	c-4.1-5.2-11.7-6.1-16.9-2C112.9,72.2,112.2,72.9,111.7,73.6L111.7,73.6z M121.1,69.7c2.1-0.1,4.1,0.8,5.4,2.4
	c1.3,1.6,2.2,3.6,2.5,5.6c0.4,2.3,0.6,4.6,0.6,6.9c0,2.3-0.2,4.6-0.7,6.8c-0.4,2.1-1.3,4-2.6,5.6c-1.3,1.6-3.3,2.5-5.4,2.4
	c-2.1,0.1-4.1-0.8-5.4-2.4c-1.3-1.6-2.1-3.6-2.5-5.6c-0.4-2.3-0.6-4.6-0.6-6.9c0-2.3,0.2-4.6,0.7-6.8c0.4-2.1,1.3-4,2.6-5.7
	C117,70.5,119,69.6,121.1,69.7L121.1,69.7z"/>
<path class="st1" d="M111.7,73.6c-5.3,6.4-5.3,15.6,0,22c4.1,5.2,11.7,6.1,16.9,2c0.7-0.6,1.4-1.2,2-2c5.3-6.4,5.3-15.6,0-22
	c-4.1-5.2-11.7-6.1-16.9-2C112.9,72.2,112.2,72.9,111.7,73.6L111.7,73.6z M121.1,69.7c2.1-0.1,4.1,0.8,5.4,2.4
	c1.3,1.6,2.2,3.6,2.5,5.6c0.4,2.3,0.6,4.6,0.6,6.9c0,2.3-0.2,4.6-0.7,6.8c-0.4,2.1-1.3,4-2.6,5.6c-1.3,1.6-3.3,2.5-5.4,2.4
	c-2.1,0.1-4.1-0.8-5.4-2.4c-1.3-1.6-2.1-3.6-2.5-5.6c-0.4-2.3-0.6-4.6-0.6-6.9c0-2.3,0.2-4.6,0.7-6.8c0.4-2.1,1.3-4,2.6-5.7
	C117,70.5,119,69.6,121.1,69.7L121.1,69.7z"/>
<path class="st0" d="M153.3,85.8c0.9,1.1,1.4,2.4,1.4,3.8l0.3,2.6c0.1,2.1,0.7,4.1,1.5,6c0.7,1.1,2.2,1.6,4.5,1.6c0.7,0,1.3,0,2-0.1
	c0.5-0.1,1-0.2,1.5-0.4l-0.2-0.6c-0.5,0.2-1.1,0.4-1.7,0.4c-0.5,0-1-0.2-1.4-0.5c-0.5-0.6-0.8-1.4-0.8-2.2l-0.6-5.2
	c-0.3-2.7-1.1-4.5-2.3-5.4c-1.2-0.9-3.1-1.5-5.8-1.8c2.2-0.3,4.3-0.9,6.3-2c1.8-1,2.9-2.9,2.8-5c0-2.9-1-4.9-2.8-6
	c-2.3-1.1-4.8-1.7-7.3-1.6h-13v0.7h4.2v28.5h-4.2v0.7h12.9v-0.7h-4.3V84.6h2.8C151,84.6,152.5,85,153.3,85.8z M146.1,83.8V70.3h2.9
	c2.7,0,4.6,0.6,5.6,1.9c1.1,1.4,1.6,3.2,1.5,5c0,2.4-0.7,4.1-2,5.1c-1.8,1.2-3.8,1.7-5.9,1.6L146.1,83.8z"/>
<path class="st1" d="M153.3,85.8c0.9,1.1,1.4,2.4,1.4,3.8l0.3,2.6c0.1,2.1,0.7,4.1,1.5,6c0.7,1.1,2.2,1.6,4.5,1.6c0.7,0,1.3,0,2-0.1
	c0.5-0.1,1-0.2,1.5-0.4l-0.2-0.6c-0.5,0.2-1.1,0.4-1.7,0.4c-0.5,0-1-0.2-1.4-0.5c-0.5-0.6-0.8-1.4-0.8-2.2l-0.6-5.2
	c-0.3-2.7-1.1-4.5-2.3-5.4c-1.2-0.9-3.1-1.5-5.8-1.8c2.2-0.3,4.3-0.9,6.3-2c1.8-1,2.9-2.9,2.8-5c0-2.9-1-4.9-2.8-6
	c-2.3-1.1-4.8-1.7-7.3-1.6h-13v0.7h4.2v28.5h-4.2v0.7h12.9v-0.7h-4.3V84.6h2.8C151,84.6,152.5,85,153.3,85.8z M146.1,83.8V70.3h2.9
	c2.7,0,4.6,0.6,5.6,1.9c1.1,1.4,1.6,3.2,1.5,5c0,2.4-0.7,4.1-2,5.1c-1.8,1.2-3.8,1.7-5.9,1.6L146.1,83.8z"/>
<path class="st0" d="M189.5,71.8c1.2,1,1.8,3.2,1.8,6.6h0.7v-8.8h-25.9v8.8h0.7c0-3.4,0.6-5.7,1.7-6.6s3.7-1.5,7.5-1.5h0.9v28.5
	h-4.4v0.7h13v-0.7h-4.4V70.3h0.9C185.9,70.3,188.4,70.8,189.5,71.8z"/>
<path class="st1" d="M189.5,71.8c1.2,1,1.8,3.2,1.8,6.6h0.7v-8.8h-25.9v8.8h0.7c0-3.4,0.6-5.7,1.7-6.6s3.7-1.5,7.5-1.5h0.9v28.5
	h-4.4v0.7h13v-0.7h-4.4V70.3h0.9C185.9,70.3,188.4,70.8,189.5,71.8z"/>
<path class="st0" d="M199,73.6c-5.3,6.4-5.2,15.6,0.1,22c4.1,5.2,11.7,6.1,16.9,2c0.7-0.6,1.4-1.2,2-2c5.3-6.4,5.3-15.7,0-22.1
	c-4.1-5.2-11.7-6.1-16.9-2C200.3,72.1,199.6,72.8,199,73.6L199,73.6z M208.4,69.7c2.1-0.1,4.1,0.8,5.4,2.4c1.3,1.6,2.2,3.6,2.6,5.6
	c0.4,2.3,0.6,4.6,0.6,6.9c0,2.3-0.2,4.6-0.6,6.8c-0.4,2.1-1.3,4-2.6,5.7c-1.3,1.6-3.3,2.5-5.4,2.4c-2.1,0.1-4.1-0.8-5.4-2.4
	c-1.3-1.6-2.2-3.6-2.5-5.6c-0.4-2.3-0.6-4.6-0.6-6.9c0-2.3,0.2-4.6,0.6-6.8c0.4-2.1,1.3-4,2.6-5.7C204.4,70.5,206.4,69.6,208.4,69.7
	z"/>
<path class="st1" d="M199,73.6c-5.3,6.4-5.2,15.6,0.1,22c4.1,5.2,11.7,6.1,16.9,2c0.7-0.6,1.4-1.2,2-2c5.3-6.4,5.3-15.7,0-22.1
	c-4.1-5.2-11.7-6.1-16.9-2C200.3,72.1,199.6,72.8,199,73.6L199,73.6z M208.4,69.7c2.1-0.1,4.1,0.8,5.4,2.4c1.3,1.6,2.2,3.6,2.6,5.6
	c0.4,2.3,0.6,4.6,0.6,6.9c0,2.3-0.2,4.6-0.6,6.8c-0.4,2.1-1.3,4-2.6,5.7c-1.3,1.6-3.3,2.5-5.4,2.4c-2.1,0.1-4.1-0.8-5.4-2.4
	c-1.3-1.6-2.2-3.6-2.5-5.6c-0.4-2.3-0.6-4.6-0.6-6.9c0-2.3,0.2-4.6,0.6-6.8c0.4-2.1,1.3-4,2.6-5.7C204.4,70.5,206.4,69.6,208.4,69.7
	z"/>
<path class="st0" d="M76.4,107.2V62H25v45.2H76.4z M68.4,94.7c1.2,1.2,1.2,3.1,0,4.2c-1.2,1.2-3.1,1.2-4.2,0c-1.2-1.2-1.2-3.1,0-4.2
	S67.2,93.5,68.4,94.7C68.4,94.7,68.4,94.7,68.4,94.7z M38.8,97.3c-2.1-2-3.3-4.8-3.1-7.7V70.4h-3.3v-0.8h13.3v0.8h-3.4V89
	c0,3.1,0.5,5.5,1.6,7.2c1,1.7,3,2.7,5.9,2.5c1.9,0,3.7-0.8,5-2.2c1.5-1.5,2.2-3.6,2.2-6.3V74c0.1-1-0.1-1.9-0.6-2.7
	c-0.4-0.6-1.1-0.9-1.8-0.8h-1.2v-0.8h8.4v0.8h-1.1c-0.7-0.1-1.3,0.3-1.7,0.9c-0.4,0.8-0.6,1.8-0.5,2.7v15.8c0.2,2.8-0.9,5.5-2.8,7.6
	c-1.9,1.8-4.7,2.8-8.4,2.8C44,100.3,41.1,99.3,38.8,97.3L38.8,97.3z"/>
<path class="st1" d="M76.4,107.2V62H25v45.2H76.4z M68.4,94.7c1.2,1.2,1.2,3.1,0,4.2c-1.2,1.2-3.1,1.2-4.2,0c-1.2-1.2-1.2-3.1,0-4.2
	S67.2,93.5,68.4,94.7C68.4,94.7,68.4,94.7,68.4,94.7z M38.8,97.3c-2.1-2-3.3-4.8-3.1-7.7V70.4h-3.3v-0.8h13.3v0.8h-3.4V89
	c0,3.1,0.5,5.5,1.6,7.2c1,1.7,3,2.7,5.9,2.5c1.9,0,3.7-0.8,5-2.2c1.5-1.5,2.2-3.6,2.2-6.3V74c0.1-1-0.1-1.9-0.6-2.7
	c-0.4-0.6-1.1-0.9-1.8-0.8h-1.2v-0.8h8.4v0.8h-1.1c-0.7-0.1-1.3,0.3-1.7,0.9c-0.4,0.8-0.6,1.8-0.5,2.7v15.8c0.2,2.8-0.9,5.5-2.8,7.6
	c-1.9,1.8-4.7,2.8-8.4,2.8C44,100.3,41.1,99.3,38.8,97.3L38.8,97.3z"/>
</svg>
