<svg xmlns="http://www.w3.org/2000/svg" xmlns:xlink="http://www.w3.org/1999/xlink" width="500" zoomAndPan="magnify" viewBox="0 0 375 374.999991" height="500" preserveAspectRatio="xMidYMid meet" version="1.0"><defs><filter x="0%" y="0%" width="100%" height="100%" id="id1"><feColorMatrix values="0 0 0 0 1 0 0 0 0 1 0 0 0 0 1 0 0 0 1 0" color-interpolation-filters="sRGB"/></filter><g/><clipPath id="id2"><path d="M 92 213 L 99 213 L 99 215.671875 L 92 215.671875 Z M 92 213 " clip-rule="nonzero"/></clipPath><mask id="id3"><g filter="url(#id1)"><rect x="-37.5" width="450" fill="rgb(0%, 0%, 0%)" y="-37.499999" height="449.999989" fill-opacity="0.698"/></g></mask><clipPath id="id4"><path d="M 1 0.601562 L 6.878906 0.601562 L 6.878906 2.671875 L 1 2.671875 Z M 1 0.601562 " clip-rule="nonzero"/></clipPath><clipPath id="id5"><rect x="0" width="7" y="0" height="3"/></clipPath><clipPath id="id6"><path d="M 98 213 L 105 213 L 105 215.671875 L 98 215.671875 Z M 98 213 " clip-rule="nonzero"/></clipPath><mask id="id7"><g filter="url(#id1)"><rect x="-37.5" width="450" fill="rgb(0%, 0%, 0%)" y="-37.499999" height="449.999989" fill-opacity="0.698"/></g></mask><clipPath id="id8"><path d="M 0.160156 0.601562 L 6 0.601562 L 6 2.671875 L 0.160156 2.671875 Z M 0.160156 0.601562 " clip-rule="nonzero"/></clipPath><clipPath id="id9"><rect x="0" width="7" y="0" height="3"/></clipPath><clipPath id="id10"><path d="M 92 210 L 105 210 L 105 215.671875 L 92 215.671875 Z M 92 210 " clip-rule="nonzero"/></clipPath><mask id="id11"><g filter="url(#id1)"><rect x="-37.5" width="450" fill="rgb(0%, 0%, 0%)" y="-37.499999" height="449.999989" fill-opacity="0.698"/></g></mask><clipPath id="id12"><path d="M 1 1 L 12 1 L 12 5.671875 L 1 5.671875 Z M 1 1 " clip-rule="nonzero"/></clipPath><clipPath id="id13"><rect x="0" width="13" y="0" height="6"/></clipPath><clipPath id="id14"><path d="M 98 159.421875 L 105 159.421875 L 105 162 L 98 162 Z M 98 159.421875 " clip-rule="nonzero"/></clipPath><mask id="id15"><g filter="url(#id1)"><rect x="-37.5" width="450" fill="rgb(0%, 0%, 0%)" y="-37.499999" height="449.999989" fill-opacity="0.698"/></g></mask><clipPath id="id16"><path d="M 0.160156 0.421875 L 6 0.421875 L 6 2.519531 L 0.160156 2.519531 Z M 0.160156 0.421875 " clip-rule="nonzero"/></clipPath><clipPath id="id17"><rect x="0" width="7" y="0" height="3"/></clipPath><clipPath id="id18"><path d="M 92 159.421875 L 99 159.421875 L 99 162 L 92 162 Z M 92 159.421875 " clip-rule="nonzero"/></clipPath><mask id="id19"><g filter="url(#id1)"><rect x="-37.5" width="450" fill="rgb(0%, 0%, 0%)" y="-37.499999" height="449.999989" fill-opacity="0.698"/></g></mask><clipPath id="id20"><path d="M 1 0.421875 L 6.878906 0.421875 L 6.878906 2.519531 L 1 2.519531 Z M 1 0.421875 " clip-rule="nonzero"/></clipPath><clipPath id="id21"><rect x="0" width="7" y="0" height="3"/></clipPath><clipPath id="id22"><path d="M 92 159.421875 L 105 159.421875 L 105 165 L 92 165 Z M 92 159.421875 " clip-rule="nonzero"/></clipPath><mask id="id23"><g filter="url(#id1)"><rect x="-37.5" width="450" fill="rgb(0%, 0%, 0%)" y="-37.499999" height="449.999989" fill-opacity="0.698"/></g></mask><clipPath id="id24"><path d="M 1 0.421875 L 12 0.421875 L 12 5 L 1 5 Z M 1 0.421875 " clip-rule="nonzero"/></clipPath><clipPath id="id25"><rect x="0" width="13" y="0" height="6"/></clipPath><clipPath id="id26"><path d="M 98 187 L 127.933594 187 L 127.933594 214 L 98 214 Z M 98 187 " clip-rule="nonzero"/></clipPath><clipPath id="id27"><path d="M 93 211 L 104 211 L 104 215.671875 L 93 215.671875 Z M 93 211 " clip-rule="nonzero"/></clipPath><clipPath id="id28"><path d="M 98 161 L 127.933594 161 L 127.933594 188 L 98 188 Z M 98 161 " clip-rule="nonzero"/></clipPath><clipPath id="id29"><path d="M 93 159.421875 L 104 159.421875 L 104 164 L 93 164 Z M 93 159.421875 " clip-rule="nonzero"/></clipPath><clipPath id="id30"><path d="M 75 213 L 82 213 L 82 215.671875 L 75 215.671875 Z M 75 213 " clip-rule="nonzero"/></clipPath><mask id="id31"><g filter="url(#id1)"><rect x="-37.5" width="450" fill="rgb(0%, 0%, 0%)" y="-37.499999" height="449.999989" fill-opacity="0.698"/></g></mask><clipPath id="id32"><path d="M 0.121094 0.601562 L 6 0.601562 L 6 2.671875 L 0.121094 2.671875 Z M 0.121094 0.601562 " clip-rule="nonzero"/></clipPath><clipPath id="id33"><rect x="0" width="7" y="0" height="3"/></clipPath><clipPath id="id34"><path d="M 80 213 L 87 213 L 87 215.671875 L 80 215.671875 Z M 80 213 " clip-rule="nonzero"/></clipPath><mask id="id35"><g filter="url(#id1)"><rect x="-37.5" width="450" fill="rgb(0%, 0%, 0%)" y="-37.499999" height="449.999989" fill-opacity="0.698"/></g></mask><clipPath id="id36"><path d="M 0.398438 0.601562 L 6.640625 0.601562 L 6.640625 2.671875 L 0.398438 2.671875 Z M 0.398438 0.601562 " clip-rule="nonzero"/></clipPath><clipPath id="id37"><rect x="0" width="7" y="0" height="3"/></clipPath><clipPath id="id38"><path d="M 75 210 L 87 210 L 87 215.671875 L 75 215.671875 Z M 75 210 " clip-rule="nonzero"/></clipPath><mask id="id39"><g filter="url(#id1)"><rect x="-37.5" width="450" fill="rgb(0%, 0%, 0%)" y="-37.499999" height="449.999989" fill-opacity="0.698"/></g></mask><clipPath id="id40"><path d="M 0.121094 1 L 11.640625 1 L 11.640625 5.671875 L 0.121094 5.671875 Z M 0.121094 1 " clip-rule="nonzero"/></clipPath><clipPath id="id41"><rect x="0" width="12" y="0" height="6"/></clipPath><clipPath id="id42"><path d="M 75 211 L 87 211 L 87 215.671875 L 75 215.671875 Z M 75 211 " clip-rule="nonzero"/></clipPath><mask id="id43"><g filter="url(#id1)"><rect x="-37.5" width="450" fill="rgb(0%, 0%, 0%)" y="-37.499999" height="449.999989" fill-opacity="0.698"/></g></mask><clipPath id="id44"><path d="M 1 0.558594 L 8.601562 0.558594 L 8.601562 9 L 1 9 Z M 1 0.558594 " clip-rule="nonzero"/></clipPath><clipPath id="id45"><rect x="0" width="9" y="0" height="10"/></clipPath><clipPath id="id46"><path d="M 51.433594 187 L 81 187 L 81 214 L 51.433594 214 Z M 51.433594 187 " clip-rule="nonzero"/></clipPath><clipPath id="id47"><path d="M 51.433594 161 L 81 161 L 81 188 L 51.433594 188 Z M 51.433594 161 " clip-rule="nonzero"/></clipPath><clipPath id="id48"><path d="M 80 159.421875 L 87 159.421875 L 87 162 L 80 162 Z M 80 159.421875 " clip-rule="nonzero"/></clipPath><mask id="id49"><g filter="url(#id1)"><rect x="-37.5" width="450" fill="rgb(0%, 0%, 0%)" y="-37.499999" height="449.999989" fill-opacity="0.698"/></g></mask><clipPath id="id50"><path d="M 0.398438 0.421875 L 6.640625 0.421875 L 6.640625 2.519531 L 0.398438 2.519531 Z M 0.398438 0.421875 " clip-rule="nonzero"/></clipPath><clipPath id="id51"><rect x="0" width="7" y="0" height="3"/></clipPath><clipPath id="id52"><path d="M 75 159.421875 L 82 159.421875 L 82 162 L 75 162 Z M 75 159.421875 " clip-rule="nonzero"/></clipPath><mask id="id53"><g filter="url(#id1)"><rect x="-37.5" width="450" fill="rgb(0%, 0%, 0%)" y="-37.499999" height="449.999989" fill-opacity="0.698"/></g></mask><clipPath id="id54"><path d="M 0.121094 0.421875 L 6 0.421875 L 6 2.519531 L 0.121094 2.519531 Z M 0.121094 0.421875 " clip-rule="nonzero"/></clipPath><clipPath id="id55"><rect x="0" width="7" y="0" height="3"/></clipPath><mask id="id56"><g filter="url(#id1)"><rect x="-37.5" width="450" fill="rgb(0%, 0%, 0%)" y="-37.499999" height="449.999989" fill-opacity="0.698"/></g></mask><clipPath id="id57"><path d="M 1 1 L 8.601562 1 L 8.601562 9.558594 L 1 9.558594 Z M 1 1 " clip-rule="nonzero"/></clipPath><clipPath id="id58"><rect x="0" width="9" y="0" height="10"/></clipPath><clipPath id="id59"><path d="M 75 159.421875 L 87 159.421875 L 87 165 L 75 165 Z M 75 159.421875 " clip-rule="nonzero"/></clipPath><mask id="id60"><g filter="url(#id1)"><rect x="-37.5" width="450" fill="rgb(0%, 0%, 0%)" y="-37.499999" height="449.999989" fill-opacity="0.698"/></g></mask><clipPath id="id61"><path d="M 0.121094 0.421875 L 11.640625 0.421875 L 11.640625 5 L 0.121094 5 Z M 0.121094 0.421875 " clip-rule="nonzero"/></clipPath><clipPath id="id62"><rect x="0" width="12" y="0" height="6"/></clipPath><clipPath id="id63"><path d="M 75 159.421875 L 87 159.421875 L 87 164 L 75 164 Z M 75 159.421875 " clip-rule="nonzero"/></clipPath></defs><rect x="-37.5" width="450" fill="rgb(100%, 100%, 100%)" y="-37.499999" height="449.999989" fill-opacity="1"/><rect x="-37.5" width="450" fill="rgb(10.5896%, 14.898682%, 17.248535%)" y="-37.499999" height="449.999989" fill-opacity="1"/><rect x="-37.5" width="450" fill="rgb(100%, 100%, 100%)" y="-37.499999" height="449.999989" fill-opacity="1"/><rect x="-37.5" width="450" fill="rgb(10.5896%, 14.898682%, 17.248535%)" y="-37.499999" height="449.999989" fill-opacity="1"/><g clip-path="url(#id2)"><g mask="url(#id3)"><g transform="matrix(1, 0, 0, 1, 92, 213)"><g clip-path="url(#id5)"><g clip-path="url(#id4)"><path fill="rgb(22.749329%, 36.468506%, 100%)" d="M 1.023438 0.761719 C 1.773438 1.390625 2.605469 1.867188 3.527344 2.195312 C 4.449219 2.523438 5.394531 2.679688 6.375 2.667969 C 4.433594 2.546875 2.679688 1.910156 1.109375 0.757812 C 1.054688 0.761719 1.023438 0.761719 1.023438 0.761719 Z M 1.023438 0.761719 " fill-opacity="1" fill-rule="nonzero"/></g></g></g></g></g><g clip-path="url(#id6)"><g mask="url(#id7)"><g transform="matrix(1, 0, 0, 1, 98, 213)"><g clip-path="url(#id9)"><g clip-path="url(#id8)"><path fill="rgb(22.749329%, 36.468506%, 100%)" d="M 5.722656 0.761719 C 5.722656 0.761719 5.691406 0.761719 5.636719 0.757812 C 4.070312 1.910156 2.3125 2.546875 0.375 2.667969 C 1.351562 2.679688 2.300781 2.523438 3.21875 2.195312 C 4.140625 1.867188 4.972656 1.390625 5.722656 0.761719 Z M 5.722656 0.761719 " fill-opacity="1" fill-rule="nonzero"/></g></g></g></g></g><g clip-path="url(#id10)"><g mask="url(#id11)"><g transform="matrix(1, 0, 0, 1, 92, 210)"><g clip-path="url(#id13)"><g clip-path="url(#id12)"><path fill="rgb(22.749329%, 36.468506%, 100%)" d="M 1.109375 3.757812 C 1.476562 4.066406 1.867188 4.335938 2.28125 4.574219 C 2.695312 4.8125 3.125 5.011719 3.574219 5.175781 C 4.023438 5.339844 4.480469 5.460938 4.953125 5.542969 C 5.421875 5.625 5.894531 5.667969 6.371094 5.667969 C 6.851562 5.667969 7.324219 5.625 7.792969 5.542969 C 8.265625 5.460938 8.722656 5.339844 9.171875 5.175781 C 9.621094 5.011719 10.050781 4.8125 10.464844 4.574219 C 10.878906 4.335938 11.269531 4.066406 11.636719 3.757812 C 11.207031 3.734375 9.183594 3.503906 6.375 1.59375 C 3.5625 3.503906 1.539062 3.734375 1.109375 3.757812 Z M 1.109375 3.757812 " fill-opacity="1" fill-rule="nonzero"/></g></g></g></g></g><g clip-path="url(#id14)"><g mask="url(#id15)"><g transform="matrix(1, 0, 0, 1, 98, 159)"><g clip-path="url(#id17)"><g clip-path="url(#id16)"><path fill="rgb(22.749329%, 36.468506%, 100%)" d="M 5.722656 2.328125 C 4.972656 1.699219 4.140625 1.222656 3.21875 0.894531 C 2.300781 0.566406 1.351562 0.410156 0.375 0.421875 C 2.316406 0.542969 4.070312 1.179688 5.636719 2.332031 C 5.691406 2.328125 5.722656 2.328125 5.722656 2.328125 Z M 5.722656 2.328125 " fill-opacity="1" fill-rule="nonzero"/></g></g></g></g></g><g clip-path="url(#id18)"><g mask="url(#id19)"><g transform="matrix(1, 0, 0, 1, 92, 159)"><g clip-path="url(#id21)"><g clip-path="url(#id20)"><path fill="rgb(22.749329%, 36.468506%, 100%)" d="M 1.023438 2.328125 C 1.023438 2.328125 1.054688 2.328125 1.109375 2.332031 C 2.675781 1.179688 4.433594 0.542969 6.375 0.421875 C 5.394531 0.410156 4.449219 0.566406 3.527344 0.894531 C 2.605469 1.222656 1.773438 1.699219 1.023438 2.328125 Z M 1.023438 2.328125 " fill-opacity="1" fill-rule="nonzero"/></g></g></g></g></g><g clip-path="url(#id22)"><g mask="url(#id23)"><g transform="matrix(1, 0, 0, 1, 92, 159)"><g clip-path="url(#id25)"><g clip-path="url(#id24)"><path fill="rgb(22.749329%, 36.468506%, 100%)" d="M 11.636719 2.332031 C 11.269531 2.027344 10.878906 1.753906 10.464844 1.515625 C 10.050781 1.277344 9.621094 1.078125 9.171875 0.914062 C 8.722656 0.753906 8.265625 0.628906 7.792969 0.546875 C 7.324219 0.464844 6.851562 0.421875 6.371094 0.421875 C 5.894531 0.421875 5.421875 0.464844 4.953125 0.546875 C 4.480469 0.628906 4.023438 0.753906 3.574219 0.914062 C 3.125 1.078125 2.695312 1.277344 2.28125 1.515625 C 1.867188 1.753906 1.476562 2.027344 1.109375 2.332031 C 1.539062 2.359375 3.5625 2.585938 6.375 4.496094 C 9.183594 2.585938 11.207031 2.359375 11.636719 2.332031 Z M 11.636719 2.332031 " fill-opacity="1" fill-rule="nonzero"/></g></g></g></g></g><g clip-path="url(#id26)"><path fill="rgb(22.749329%, 36.468506%, 100%)" d="M 102.253906 208.207031 C 101.089844 209.480469 99.792969 210.609375 98.375 211.59375 C 101.179688 213.503906 103.207031 213.734375 103.636719 213.757812 C 104.824219 212.933594 105.878906 211.964844 106.800781 210.847656 L 127.789062 187.546875 L 120.722656 187.546875 Z M 102.253906 208.207031 " fill-opacity="1" fill-rule="nonzero"/></g><g clip-path="url(#id27)"><path fill="rgb(22.749329%, 36.468506%, 100%)" d="M 93.109375 213.757812 C 93.476562 214.066406 93.867188 214.335938 94.28125 214.574219 C 94.695312 214.8125 95.125 215.011719 95.574219 215.175781 C 96.023438 215.339844 96.480469 215.460938 96.953125 215.542969 C 97.421875 215.625 97.894531 215.667969 98.371094 215.667969 C 98.851562 215.667969 99.324219 215.625 99.792969 215.542969 C 100.265625 215.460938 100.722656 215.339844 101.171875 215.175781 C 101.621094 215.011719 102.050781 214.8125 102.464844 214.574219 C 102.878906 214.335938 103.269531 214.066406 103.636719 213.757812 C 103.207031 213.734375 101.183594 213.503906 98.375 211.59375 C 95.5625 213.503906 93.539062 213.734375 93.109375 213.757812 Z M 93.109375 213.757812 " fill-opacity="1" fill-rule="nonzero"/></g><g clip-path="url(#id28)"><path fill="rgb(22.749329%, 36.468506%, 100%)" d="M 102.253906 166.886719 L 120.722656 187.546875 L 127.789062 187.546875 L 106.800781 164.242188 C 105.878906 163.125 104.824219 162.15625 103.636719 161.332031 C 103.207031 161.359375 101.183594 161.585938 98.375 163.496094 C 99.792969 164.480469 101.089844 165.609375 102.253906 166.886719 Z M 102.253906 166.886719 " fill-opacity="1" fill-rule="nonzero"/></g><g clip-path="url(#id29)"><path fill="rgb(22.749329%, 36.468506%, 100%)" d="M 103.636719 161.332031 C 103.269531 161.027344 102.878906 160.753906 102.464844 160.515625 C 102.050781 160.277344 101.621094 160.078125 101.171875 159.914062 C 100.722656 159.753906 100.265625 159.628906 99.792969 159.546875 C 99.324219 159.464844 98.851562 159.421875 98.371094 159.421875 C 97.894531 159.421875 97.421875 159.464844 96.953125 159.546875 C 96.480469 159.628906 96.023438 159.753906 95.574219 159.914062 C 95.125 160.078125 94.695312 160.277344 94.28125 160.515625 C 93.867188 160.753906 93.476562 161.027344 93.109375 161.332031 C 93.539062 161.359375 95.5625 161.585938 98.375 163.496094 C 101.183594 161.585938 103.207031 161.359375 103.636719 161.332031 Z M 103.636719 161.332031 " fill-opacity="1" fill-rule="nonzero"/></g><g clip-path="url(#id30)"><g mask="url(#id31)"><g transform="matrix(1, 0, 0, 1, 75, 213)"><g clip-path="url(#id33)"><g clip-path="url(#id32)"><path fill="rgb(22.749329%, 36.468506%, 100%)" d="M 0.640625 0.761719 C 1.390625 1.390625 2.222656 1.867188 3.144531 2.195312 C 4.066406 2.523438 5.015625 2.679688 5.992188 2.667969 C 4.050781 2.546875 2.296875 1.910156 0.726562 0.757812 C 0.671875 0.761719 0.640625 0.761719 0.640625 0.761719 Z M 0.640625 0.761719 " fill-opacity="1" fill-rule="nonzero"/></g></g></g></g></g><g clip-path="url(#id34)"><g mask="url(#id35)"><g transform="matrix(1, 0, 0, 1, 80, 213)"><g clip-path="url(#id37)"><g clip-path="url(#id36)"><path fill="rgb(22.749329%, 36.468506%, 100%)" d="M 6.339844 0.761719 C 6.339844 0.761719 6.308594 0.761719 6.253906 0.757812 C 4.6875 1.910156 2.933594 2.546875 0.992188 2.667969 C 1.96875 2.679688 2.917969 2.523438 3.835938 2.195312 C 4.757812 1.867188 5.589844 1.390625 6.339844 0.761719 Z M 6.339844 0.761719 " fill-opacity="1" fill-rule="nonzero"/></g></g></g></g></g><g clip-path="url(#id38)"><g mask="url(#id39)"><g transform="matrix(1, 0, 0, 1, 75, 210)"><g clip-path="url(#id41)"><g clip-path="url(#id40)"><path fill="rgb(22.749329%, 36.468506%, 100%)" d="M 0.726562 3.757812 C 1.09375 4.066406 1.484375 4.335938 1.898438 4.574219 C 2.3125 4.8125 2.742188 5.011719 3.191406 5.175781 C 3.640625 5.339844 4.097656 5.460938 4.570312 5.542969 C 5.039062 5.625 5.511719 5.667969 5.992188 5.667969 C 6.46875 5.667969 6.941406 5.625 7.410156 5.542969 C 7.882812 5.460938 8.339844 5.339844 8.789062 5.175781 C 9.238281 5.011719 9.667969 4.8125 10.082031 4.574219 C 10.496094 4.335938 10.886719 4.066406 11.253906 3.757812 C 10.824219 3.734375 8.800781 3.503906 5.992188 1.59375 C 3.179688 3.503906 1.160156 3.734375 0.726562 3.757812 Z M 0.726562 3.757812 " fill-opacity="1" fill-rule="nonzero"/></g></g></g></g></g><g clip-path="url(#id42)"><path fill="rgb(22.749329%, 36.468506%, 100%)" d="M 75.726562 213.757812 C 76.09375 214.066406 76.484375 214.335938 76.898438 214.574219 C 77.3125 214.8125 77.742188 215.011719 78.191406 215.175781 C 78.640625 215.339844 79.097656 215.460938 79.570312 215.542969 C 80.039062 215.625 80.511719 215.667969 80.992188 215.667969 C 81.46875 215.667969 81.941406 215.625 82.410156 215.542969 C 82.882812 215.460938 83.339844 215.339844 83.789062 215.175781 C 84.238281 215.011719 84.667969 214.8125 85.082031 214.574219 C 85.496094 214.335938 85.886719 214.066406 86.253906 213.757812 C 85.824219 213.734375 83.800781 213.503906 80.992188 211.59375 C 78.179688 213.503906 76.160156 213.734375 75.726562 213.757812 Z M 75.726562 213.757812 " fill-opacity="1" fill-rule="nonzero"/></g><path fill="rgb(22.749329%, 36.468506%, 100%)" d="M 68.957031 187.546875 L 86.214844 206.703125 L 89.683594 202.824219 L 76.027344 187.546875 Z M 68.957031 187.546875 " fill-opacity="1" fill-rule="nonzero"/><path fill="rgb(22.749329%, 36.468506%, 100%)" d="M 76.023438 187.546875 L 68.957031 187.546875 L 86.214844 168.386719 L 89.679688 172.265625 " fill-opacity="1" fill-rule="nonzero"/><path fill="rgb(22.749329%, 36.468506%, 100%)" d="M 103.339844 187.546875 L 89.683594 202.828125 L 93.148438 206.707031 L 110.40625 187.546875 Z M 103.339844 187.546875 " fill-opacity="1" fill-rule="nonzero"/><path fill="rgb(22.749329%, 36.468506%, 100%)" d="M 84.871094 208.207031 C 83.707031 209.480469 82.410156 210.609375 80.992188 211.59375 C 83.800781 213.503906 85.824219 213.734375 86.253906 213.757812 C 87.441406 212.933594 88.496094 211.964844 89.417969 210.847656 L 89.683594 210.550781 L 86.214844 206.703125 Z M 84.871094 208.207031 " fill-opacity="1" fill-rule="nonzero"/><g mask="url(#id43)"><g transform="matrix(1, 0, 0, 1, 85, 202)"><g clip-path="url(#id45)"><g clip-path="url(#id44)"><path fill="rgb(22.749329%, 36.468506%, 100%)" d="M 4.683594 0.828125 L 1.214844 4.707031 L 4.683594 8.554688 L 8.148438 4.707031 Z M 4.683594 0.828125 " fill-opacity="1" fill-rule="nonzero"/></g></g></g></g><path fill="rgb(22.749329%, 36.468506%, 100%)" d="M 89.683594 202.828125 L 86.214844 206.707031 L 89.683594 210.554688 L 93.148438 206.707031 Z M 89.683594 202.828125 " fill-opacity="1" fill-rule="nonzero"/><g clip-path="url(#id46)"><path fill="rgb(22.749329%, 36.468506%, 100%)" d="M 77.109375 208.207031 L 58.644531 187.546875 L 51.574219 187.546875 L 72.566406 210.847656 C 73.484375 211.964844 74.539062 212.933594 75.726562 213.757812 C 76.15625 213.734375 78.179688 213.503906 80.992188 211.59375 C 79.570312 210.609375 78.273438 209.480469 77.109375 208.207031 Z M 77.109375 208.207031 " fill-opacity="1" fill-rule="nonzero"/></g><g clip-path="url(#id47)"><path fill="rgb(22.749329%, 36.468506%, 100%)" d="M 77.109375 166.886719 C 78.273438 165.609375 79.570312 164.480469 80.992188 163.496094 C 78.179688 161.585938 76.15625 161.359375 75.726562 161.332031 C 74.539062 162.15625 73.484375 163.125 72.566406 164.242188 L 51.574219 187.546875 L 58.644531 187.546875 Z M 77.109375 166.886719 " fill-opacity="1" fill-rule="nonzero"/></g><g clip-path="url(#id48)"><g mask="url(#id49)"><g transform="matrix(1, 0, 0, 1, 80, 159)"><g clip-path="url(#id51)"><g clip-path="url(#id50)"><path fill="rgb(22.749329%, 36.468506%, 100%)" d="M 6.339844 2.328125 C 5.589844 1.699219 4.757812 1.222656 3.835938 0.894531 C 2.917969 0.566406 1.96875 0.410156 0.992188 0.421875 C 2.933594 0.542969 4.6875 1.179688 6.253906 2.332031 C 6.308594 2.328125 6.339844 2.328125 6.339844 2.328125 Z M 6.339844 2.328125 " fill-opacity="1" fill-rule="nonzero"/></g></g></g></g></g><path fill="rgb(22.749329%, 36.468506%, 100%)" d="M 110.40625 187.546875 L 93.148438 168.386719 L 89.683594 172.265625 L 103.339844 187.546875 Z M 110.40625 187.546875 " fill-opacity="1" fill-rule="nonzero"/><g clip-path="url(#id52)"><g mask="url(#id53)"><g transform="matrix(1, 0, 0, 1, 75, 159)"><g clip-path="url(#id55)"><g clip-path="url(#id54)"><path fill="rgb(22.749329%, 36.468506%, 100%)" d="M 0.640625 2.328125 C 0.640625 2.328125 0.671875 2.328125 0.726562 2.332031 C 2.296875 1.179688 4.050781 0.542969 5.992188 0.421875 C 5.015625 0.410156 4.066406 0.566406 3.144531 0.894531 C 2.222656 1.222656 1.390625 1.699219 0.640625 2.328125 Z M 0.640625 2.328125 " fill-opacity="1" fill-rule="nonzero"/></g></g></g></g></g><path fill="rgb(22.749329%, 36.468506%, 100%)" d="M 86.253906 161.332031 C 85.824219 161.359375 83.800781 161.585938 80.992188 163.496094 C 82.410156 164.480469 83.707031 165.609375 84.871094 166.886719 L 86.214844 168.386719 L 89.683594 164.539062 L 89.417969 164.246094 C 88.496094 163.128906 87.441406 162.15625 86.253906 161.332031 Z M 86.253906 161.332031 " fill-opacity="1" fill-rule="nonzero"/><g mask="url(#id56)"><g transform="matrix(1, 0, 0, 1, 85, 163)"><g clip-path="url(#id58)"><g clip-path="url(#id57)"><path fill="rgb(22.749329%, 36.468506%, 100%)" d="M 4.683594 9.265625 L 8.148438 5.386719 L 4.683594 1.539062 L 1.214844 5.386719 Z M 4.683594 9.265625 " fill-opacity="1" fill-rule="nonzero"/></g></g></g></g><path fill="rgb(22.749329%, 36.468506%, 100%)" d="M 89.683594 172.265625 L 93.148438 168.386719 L 89.683594 164.539062 L 86.214844 168.386719 Z M 89.683594 172.265625 " fill-opacity="1" fill-rule="nonzero"/><g clip-path="url(#id59)"><g mask="url(#id60)"><g transform="matrix(1, 0, 0, 1, 75, 159)"><g clip-path="url(#id62)"><g clip-path="url(#id61)"><path fill="rgb(22.749329%, 36.468506%, 100%)" d="M 11.253906 2.332031 C 10.886719 2.027344 10.496094 1.753906 10.082031 1.515625 C 9.667969 1.277344 9.238281 1.078125 8.789062 0.914062 C 8.339844 0.753906 7.882812 0.628906 7.410156 0.546875 C 6.941406 0.464844 6.46875 0.421875 5.992188 0.421875 C 5.511719 0.421875 5.039062 0.464844 4.570312 0.546875 C 4.097656 0.628906 3.640625 0.753906 3.191406 0.914062 C 2.742188 1.078125 2.3125 1.277344 1.898438 1.515625 C 1.484375 1.753906 1.09375 2.027344 0.726562 2.332031 C 1.15625 2.359375 3.179688 2.585938 5.992188 4.496094 C 8.800781 2.585938 10.824219 2.359375 11.253906 2.332031 Z M 11.253906 2.332031 " fill-opacity="1" fill-rule="nonzero"/></g></g></g></g></g><g clip-path="url(#id63)"><path fill="rgb(22.749329%, 36.468506%, 100%)" d="M 86.253906 161.332031 C 85.886719 161.027344 85.496094 160.753906 85.082031 160.515625 C 84.667969 160.277344 84.238281 160.078125 83.789062 159.914062 C 83.339844 159.753906 82.882812 159.628906 82.410156 159.546875 C 81.941406 159.464844 81.46875 159.421875 80.992188 159.421875 C 80.511719 159.421875 80.039062 159.464844 79.570312 159.546875 C 79.097656 159.628906 78.640625 159.753906 78.191406 159.914062 C 77.742188 160.078125 77.3125 160.277344 76.898438 160.515625 C 76.484375 160.753906 76.09375 161.027344 75.726562 161.332031 C 76.15625 161.359375 78.179688 161.585938 80.992188 163.496094 C 83.800781 161.585938 85.824219 161.359375 86.253906 161.332031 Z M 86.253906 161.332031 " fill-opacity="1" fill-rule="nonzero"/></g><g fill="rgb(100%, 100%, 100%)" fill-opacity="1"><g transform="translate(135.846118, 200.363087)"><g><path d="M 28.59375 -23.269531 C 25.582031 -23.269531 23.007812 -21.652344 20.476562 -19.515625 C 19.691406 -21.828125 18.03125 -23.269531 15.105469 -23.269531 C 12.003906 -23.269531 9.515625 -21.347656 7.074219 -19.253906 L 7.074219 -22.832031 L 3.316406 -22.832031 L 3.316406 0 L 7.335938 0 L 7.335938 -15.714844 C 9.125 -17.507812 11.65625 -19.601562 13.839844 -19.601562 C 16.152344 -19.601562 17.027344 -17.59375 17.027344 -14.84375 L 17.027344 0 L 21.042969 0 L 21.042969 -16.242188 C 22.832031 -17.988281 25.363281 -19.601562 27.375 -19.601562 C 29.863281 -19.601562 30.734375 -17.59375 30.734375 -14.84375 L 30.734375 0 L 34.75 0 L 34.75 -15.453125 C 34.75 -20.039062 33.136719 -23.269531 28.59375 -23.269531 Z M 28.59375 -23.269531 "/></g></g></g><g fill="rgb(100%, 100%, 100%)" fill-opacity="1"><g transform="translate(173.60545, 200.363087)"><g><path d="M 11.351562 -23.269531 C 4.058594 -23.269531 2.488281 -18.992188 2.488281 -14.058594 L 2.488281 -8.339844 C 2.488281 -3.625 3.84375 0.347656 9.910156 0.347656 C 13.011719 0.347656 15.890625 -1.570312 18.25 -3.535156 L 18.25 0 L 22.003906 0 L 22.003906 -21.917969 C 19.558594 -22.660156 15.238281 -23.269531 11.351562 -23.269531 Z M 6.503906 -8.296875 L 6.503906 -14.1875 C 6.503906 -16.023438 6.503906 -19.863281 12.050781 -19.863281 C 13.882812 -19.863281 16.328125 -19.601562 17.988281 -19.296875 L 17.988281 -7.160156 C 15.933594 -5.0625 13.273438 -3.054688 10.695312 -3.054688 C 7.203125 -3.054688 6.503906 -5.542969 6.503906 -8.296875 Z M 6.503906 -8.296875 "/></g></g></g><g fill="rgb(100%, 100%, 100%)" fill-opacity="1"><g transform="translate(198.923854, 200.363087)"><g><path d="M 17.679688 0 L 22.046875 0 L 16.285156 -11.789062 L 21.4375 -22.789062 L 17.113281 -22.789062 L 12.964844 -13.316406 L 10.214844 -13.316406 L 6.070312 -22.789062 L 1.746094 -22.789062 L 6.855469 -11.789062 L 1.089844 0 L 5.457031 0 L 10.171875 -9.867188 L 13.011719 -9.867188 Z M 17.679688 0 "/></g></g></g><g fill="rgb(100%, 100%, 100%)" fill-opacity="1"><g transform="translate(222.103288, 200.363087)"><g><path d="M 11.480469 -27.109375 C 12.398438 -27.109375 13.707031 -26.9375 14.757812 -26.761719 L 14.886719 -29.863281 C 13.578125 -30.167969 11.308594 -30.386719 10.085938 -30.386719 C 5.0625 -30.386719 4.496094 -27.417969 4.496094 -24.492188 L 4.496094 -22.832031 L 1.089844 -22.832031 L 1.089844 -19.382812 L 4.496094 -19.382812 L 4.496094 0 L 8.511719 0 L 8.511719 -19.382812 L 14.144531 -19.382812 L 14.144531 -22.832031 L 8.511719 -22.832031 L 8.511719 -23.835938 C 8.511719 -25.933594 8.992188 -27.109375 11.480469 -27.109375 Z M 11.480469 -27.109375 "/></g></g></g><g fill="rgb(100%, 100%, 100%)" fill-opacity="1"><g transform="translate(236.421276, 200.363087)"><g><path d="M 3.316406 0 L 7.378906 0 L 7.378906 -29.425781 L 3.316406 -29.425781 Z M 3.316406 0 "/></g></g></g><g fill="rgb(100%, 100%, 100%)" fill-opacity="1"><g transform="translate(247.116122, 200.363087)"><g><path d="M 3.273438 -29.949219 L 3.273438 -25.363281 L 7.378906 -25.363281 L 7.378906 -29.949219 Z M 3.316406 0 L 7.378906 0 L 7.378906 -22.832031 L 3.316406 -22.832031 Z M 3.316406 0 "/></g></g></g><g fill="rgb(100%, 100%, 100%)" fill-opacity="1"><g transform="translate(257.810968, 200.363087)"><g><path d="M 17.679688 0 L 22.046875 0 L 16.285156 -11.789062 L 21.4375 -22.789062 L 17.113281 -22.789062 L 12.964844 -13.316406 L 10.214844 -13.316406 L 6.070312 -22.789062 L 1.746094 -22.789062 L 6.855469 -11.789062 L 1.089844 0 L 5.457031 0 L 10.171875 -9.867188 L 13.011719 -9.867188 Z M 17.679688 0 "/></g></g></g></svg>