<svg xmlns="http://www.w3.org/2000/svg" xmlns:xlink="http://www.w3.org/1999/xlink" width="500" zoomAndPan="magnify" viewBox="0 0 375 374.999991" height="500" preserveAspectRatio="xMidYMid meet" version="1.0"><defs><filter x="0%" y="0%" width="100%" height="100%" id="id1"><feColorMatrix values="0 0 0 0 1 0 0 0 0 1 0 0 0 0 1 0 0 0 1 0" color-interpolation-filters="sRGB"/></filter><g/><clipPath id="id2"><path d="M 103 213 L 110 213 L 110 215.671875 L 103 215.671875 Z M 103 213 " clip-rule="nonzero"/></clipPath><mask id="id3"><g filter="url(#id1)"><rect x="-37.5" width="450" fill="rgb(0%, 0%, 0%)" y="-37.499999" height="449.999989" fill-opacity="0.698"/></g></mask><clipPath id="id4"><path d="M 0.441406 0.601562 L 6 0.601562 L 6 2.671875 L 0.441406 2.671875 Z M 0.441406 0.601562 " clip-rule="nonzero"/></clipPath><clipPath id="id5"><rect x="0" width="7" y="0" height="3"/></clipPath><clipPath id="id6"><path d="M 108 213 L 115 213 L 115 215.671875 L 108 215.671875 Z M 108 213 " clip-rule="nonzero"/></clipPath><mask id="id7"><g filter="url(#id1)"><rect x="-37.5" width="450" fill="rgb(0%, 0%, 0%)" y="-37.499999" height="449.999989" fill-opacity="0.698"/></g></mask><clipPath id="id8"><path d="M 0.71875 0.601562 L 6.71875 0.601562 L 6.71875 2.671875 L 0.71875 2.671875 Z M 0.71875 0.601562 " clip-rule="nonzero"/></clipPath><clipPath id="id9"><rect x="0" width="7" y="0" height="3"/></clipPath><clipPath id="id10"><path d="M 103 210 L 115 210 L 115 215.671875 L 103 215.671875 Z M 103 210 " clip-rule="nonzero"/></clipPath><mask id="id11"><g filter="url(#id1)"><rect x="-37.5" width="450" fill="rgb(0%, 0%, 0%)" y="-37.499999" height="449.999989" fill-opacity="0.698"/></g></mask><clipPath id="id12"><path d="M 0.441406 1 L 11.71875 1 L 11.71875 5.671875 L 0.441406 5.671875 Z M 0.441406 1 " clip-rule="nonzero"/></clipPath><clipPath id="id13"><rect x="0" width="12" y="0" height="6"/></clipPath><clipPath id="id14"><path d="M 108 159.421875 L 115 159.421875 L 115 162 L 108 162 Z M 108 159.421875 " clip-rule="nonzero"/></clipPath><mask id="id15"><g filter="url(#id1)"><rect x="-37.5" width="450" fill="rgb(0%, 0%, 0%)" y="-37.499999" height="449.999989" fill-opacity="0.698"/></g></mask><clipPath id="id16"><path d="M 0.71875 0.421875 L 6.71875 0.421875 L 6.71875 2.519531 L 0.71875 2.519531 Z M 0.71875 0.421875 " clip-rule="nonzero"/></clipPath><clipPath id="id17"><rect x="0" width="7" y="0" height="3"/></clipPath><clipPath id="id18"><path d="M 103 159.421875 L 110 159.421875 L 110 162 L 103 162 Z M 103 159.421875 " clip-rule="nonzero"/></clipPath><mask id="id19"><g filter="url(#id1)"><rect x="-37.5" width="450" fill="rgb(0%, 0%, 0%)" y="-37.499999" height="449.999989" fill-opacity="0.698"/></g></mask><clipPath id="id20"><path d="M 0.441406 0.421875 L 6 0.421875 L 6 2.519531 L 0.441406 2.519531 Z M 0.441406 0.421875 " clip-rule="nonzero"/></clipPath><clipPath id="id21"><rect x="0" width="7" y="0" height="3"/></clipPath><clipPath id="id22"><path d="M 103 159.421875 L 115 159.421875 L 115 165 L 103 165 Z M 103 159.421875 " clip-rule="nonzero"/></clipPath><mask id="id23"><g filter="url(#id1)"><rect x="-37.5" width="450" fill="rgb(0%, 0%, 0%)" y="-37.499999" height="449.999989" fill-opacity="0.698"/></g></mask><clipPath id="id24"><path d="M 0.441406 0.421875 L 11.71875 0.421875 L 11.71875 5 L 0.441406 5 Z M 0.441406 0.421875 " clip-rule="nonzero"/></clipPath><clipPath id="id25"><rect x="0" width="12" y="0" height="6"/></clipPath><clipPath id="id26"><path d="M 108 187 L 138.488281 187 L 138.488281 214 L 108 214 Z M 108 187 " clip-rule="nonzero"/></clipPath><clipPath id="id27"><path d="M 103 211 L 115 211 L 115 215.671875 L 103 215.671875 Z M 103 211 " clip-rule="nonzero"/></clipPath><clipPath id="id28"><path d="M 108 161 L 138.488281 161 L 138.488281 188 L 108 188 Z M 108 161 " clip-rule="nonzero"/></clipPath><clipPath id="id29"><path d="M 103 159.421875 L 115 159.421875 L 115 164 L 103 164 Z M 103 159.421875 " clip-rule="nonzero"/></clipPath><clipPath id="id30"><path d="M 85 213 L 92 213 L 92 215.671875 L 85 215.671875 Z M 85 213 " clip-rule="nonzero"/></clipPath><mask id="id31"><g filter="url(#id1)"><rect x="-37.5" width="450" fill="rgb(0%, 0%, 0%)" y="-37.499999" height="449.999989" fill-opacity="0.698"/></g></mask><clipPath id="id32"><path d="M 1 0.601562 L 6.921875 0.601562 L 6.921875 2.671875 L 1 2.671875 Z M 1 0.601562 " clip-rule="nonzero"/></clipPath><clipPath id="id33"><rect x="0" width="7" y="0" height="3"/></clipPath><clipPath id="id34"><path d="M 90 213 L 98 213 L 98 215.671875 L 90 215.671875 Z M 90 213 " clip-rule="nonzero"/></clipPath><mask id="id35"><g filter="url(#id1)"><rect x="-37.5" width="450" fill="rgb(0%, 0%, 0%)" y="-37.499999" height="449.999989" fill-opacity="0.698"/></g></mask><clipPath id="id36"><path d="M 1 0.601562 L 7 0.601562 L 7 2.671875 L 1 2.671875 Z M 1 0.601562 " clip-rule="nonzero"/></clipPath><clipPath id="id37"><rect x="0" width="8" y="0" height="3"/></clipPath><clipPath id="id38"><path d="M 85 210 L 98 210 L 98 215.671875 L 85 215.671875 Z M 85 210 " clip-rule="nonzero"/></clipPath><mask id="id39"><g filter="url(#id1)"><rect x="-37.5" width="450" fill="rgb(0%, 0%, 0%)" y="-37.499999" height="449.999989" fill-opacity="0.698"/></g></mask><clipPath id="id40"><path d="M 1 1 L 12 1 L 12 5.671875 L 1 5.671875 Z M 1 1 " clip-rule="nonzero"/></clipPath><clipPath id="id41"><rect x="0" width="13" y="0" height="6"/></clipPath><clipPath id="id42"><path d="M 86 211 L 97 211 L 97 215.671875 L 86 215.671875 Z M 86 211 " clip-rule="nonzero"/></clipPath><mask id="id43"><g filter="url(#id1)"><rect x="-37.5" width="450" fill="rgb(0%, 0%, 0%)" y="-37.499999" height="449.999989" fill-opacity="0.698"/></g></mask><clipPath id="id44"><path d="M 0.238281 0.558594 L 8 0.558594 L 8 9 L 0.238281 9 Z M 0.238281 0.558594 " clip-rule="nonzero"/></clipPath><clipPath id="id45"><rect x="0" width="9" y="0" height="10"/></clipPath><clipPath id="id46"><path d="M 90 159.421875 L 98 159.421875 L 98 162 L 90 162 Z M 90 159.421875 " clip-rule="nonzero"/></clipPath><mask id="id47"><g filter="url(#id1)"><rect x="-37.5" width="450" fill="rgb(0%, 0%, 0%)" y="-37.499999" height="449.999989" fill-opacity="0.698"/></g></mask><clipPath id="id48"><path d="M 1 0.421875 L 7 0.421875 L 7 2.519531 L 1 2.519531 Z M 1 0.421875 " clip-rule="nonzero"/></clipPath><clipPath id="id49"><rect x="0" width="8" y="0" height="3"/></clipPath><clipPath id="id50"><path d="M 85 159.421875 L 92 159.421875 L 92 162 L 85 162 Z M 85 159.421875 " clip-rule="nonzero"/></clipPath><mask id="id51"><g filter="url(#id1)"><rect x="-37.5" width="450" fill="rgb(0%, 0%, 0%)" y="-37.499999" height="449.999989" fill-opacity="0.698"/></g></mask><clipPath id="id52"><path d="M 1 0.421875 L 6.921875 0.421875 L 6.921875 2.519531 L 1 2.519531 Z M 1 0.421875 " clip-rule="nonzero"/></clipPath><clipPath id="id53"><rect x="0" width="7" y="0" height="3"/></clipPath><mask id="id54"><g filter="url(#id1)"><rect x="-37.5" width="450" fill="rgb(0%, 0%, 0%)" y="-37.499999" height="449.999989" fill-opacity="0.698"/></g></mask><clipPath id="id55"><path d="M 0.238281 1 L 8 1 L 8 9.558594 L 0.238281 9.558594 Z M 0.238281 1 " clip-rule="nonzero"/></clipPath><clipPath id="id56"><rect x="0" width="9" y="0" height="10"/></clipPath><clipPath id="id57"><path d="M 85 159.421875 L 98 159.421875 L 98 165 L 85 165 Z M 85 159.421875 " clip-rule="nonzero"/></clipPath><mask id="id58"><g filter="url(#id1)"><rect x="-37.5" width="450" fill="rgb(0%, 0%, 0%)" y="-37.499999" height="449.999989" fill-opacity="0.698"/></g></mask><clipPath id="id59"><path d="M 1 0.421875 L 12 0.421875 L 12 5 L 1 5 Z M 1 0.421875 " clip-rule="nonzero"/></clipPath><clipPath id="id60"><rect x="0" width="13" y="0" height="6"/></clipPath><clipPath id="id61"><path d="M 86 159.421875 L 97 159.421875 L 97 164 L 86 164 Z M 86 159.421875 " clip-rule="nonzero"/></clipPath></defs><rect x="-37.5" width="450" fill="rgb(100%, 100%, 100%)" y="-37.499999" height="449.999989" fill-opacity="1"/><rect x="-37.5" width="450" fill="rgb(100%, 100%, 100%)" y="-37.499999" height="449.999989" fill-opacity="1"/><rect x="-37.5" width="450" fill="rgb(100%, 100%, 100%)" y="-37.499999" height="449.999989" fill-opacity="1"/><g clip-path="url(#id2)"><g mask="url(#id3)"><g transform="matrix(1, 0, 0, 1, 103, 213)"><g clip-path="url(#id5)"><g clip-path="url(#id4)"><path fill="rgb(22.749329%, 36.468506%, 100%)" d="M 0.578125 0.761719 C 1.328125 1.390625 2.160156 1.867188 3.082031 2.195312 C 4.003906 2.523438 4.949219 2.679688 5.929688 2.667969 C 3.988281 2.546875 2.230469 1.910156 0.664062 0.757812 C 0.609375 0.761719 0.578125 0.761719 0.578125 0.761719 Z M 0.578125 0.761719 " fill-opacity="1" fill-rule="nonzero"/></g></g></g></g></g><g clip-path="url(#id6)"><g mask="url(#id7)"><g transform="matrix(1, 0, 0, 1, 108, 213)"><g clip-path="url(#id9)"><g clip-path="url(#id8)"><path fill="rgb(22.749329%, 36.468506%, 100%)" d="M 6.277344 0.761719 C 6.277344 0.761719 6.246094 0.761719 6.191406 0.757812 C 4.625 1.910156 2.867188 2.546875 0.929688 2.667969 C 1.90625 2.679688 2.851562 2.523438 3.773438 2.195312 C 4.695312 1.867188 5.527344 1.390625 6.277344 0.761719 Z M 6.277344 0.761719 " fill-opacity="1" fill-rule="nonzero"/></g></g></g></g></g><g clip-path="url(#id10)"><g mask="url(#id11)"><g transform="matrix(1, 0, 0, 1, 103, 210)"><g clip-path="url(#id13)"><g clip-path="url(#id12)"><path fill="rgb(22.749329%, 36.468506%, 100%)" d="M 0.664062 3.757812 C 1.03125 4.066406 1.421875 4.335938 1.835938 4.574219 C 2.25 4.8125 2.679688 5.011719 3.128906 5.175781 C 3.578125 5.339844 4.035156 5.460938 4.507812 5.542969 C 4.976562 5.625 5.449219 5.667969 5.925781 5.667969 C 6.40625 5.667969 6.878906 5.625 7.347656 5.542969 C 7.820312 5.460938 8.277344 5.339844 8.726562 5.175781 C 9.175781 5.011719 9.605469 4.8125 10.019531 4.574219 C 10.433594 4.335938 10.824219 4.066406 11.191406 3.757812 C 10.761719 3.734375 8.738281 3.503906 5.929688 1.59375 C 3.117188 3.503906 1.09375 3.734375 0.664062 3.757812 Z M 0.664062 3.757812 " fill-opacity="1" fill-rule="nonzero"/></g></g></g></g></g><g clip-path="url(#id14)"><g mask="url(#id15)"><g transform="matrix(1, 0, 0, 1, 108, 159)"><g clip-path="url(#id17)"><g clip-path="url(#id16)"><path fill="rgb(22.749329%, 36.468506%, 100%)" d="M 6.277344 2.328125 C 5.527344 1.699219 4.695312 1.222656 3.773438 0.894531 C 2.855469 0.566406 1.90625 0.410156 0.929688 0.421875 C 2.867188 0.542969 4.625 1.179688 6.191406 2.332031 C 6.246094 2.328125 6.277344 2.328125 6.277344 2.328125 Z M 6.277344 2.328125 " fill-opacity="1" fill-rule="nonzero"/></g></g></g></g></g><g clip-path="url(#id18)"><g mask="url(#id19)"><g transform="matrix(1, 0, 0, 1, 103, 159)"><g clip-path="url(#id21)"><g clip-path="url(#id20)"><path fill="rgb(22.749329%, 36.468506%, 100%)" d="M 0.578125 2.328125 C 0.578125 2.328125 0.609375 2.328125 0.664062 2.332031 C 2.230469 1.179688 3.988281 0.542969 5.929688 0.421875 C 4.949219 0.410156 4.003906 0.566406 3.082031 0.894531 C 2.160156 1.222656 1.328125 1.699219 0.578125 2.328125 Z M 0.578125 2.328125 " fill-opacity="1" fill-rule="nonzero"/></g></g></g></g></g><g clip-path="url(#id22)"><g mask="url(#id23)"><g transform="matrix(1, 0, 0, 1, 103, 159)"><g clip-path="url(#id25)"><g clip-path="url(#id24)"><path fill="rgb(22.749329%, 36.468506%, 100%)" d="M 11.191406 2.332031 C 10.824219 2.027344 10.433594 1.753906 10.019531 1.515625 C 9.605469 1.277344 9.175781 1.078125 8.726562 0.914062 C 8.277344 0.753906 7.820312 0.628906 7.347656 0.546875 C 6.878906 0.464844 6.40625 0.421875 5.925781 0.421875 C 5.449219 0.421875 4.976562 0.464844 4.507812 0.546875 C 4.035156 0.628906 3.578125 0.753906 3.128906 0.914062 C 2.679688 1.078125 2.25 1.277344 1.835938 1.515625 C 1.421875 1.753906 1.03125 2.027344 0.664062 2.332031 C 1.09375 2.359375 3.117188 2.585938 5.929688 4.496094 C 8.738281 2.585938 10.761719 2.359375 11.191406 2.332031 Z M 11.191406 2.332031 " fill-opacity="1" fill-rule="nonzero"/></g></g></g></g></g><g clip-path="url(#id26)"><path fill="rgb(22.749329%, 36.468506%, 100%)" d="M 112.808594 208.207031 C 111.644531 209.480469 110.347656 210.609375 108.929688 211.59375 C 111.734375 213.503906 113.761719 213.734375 114.191406 213.757812 C 115.378906 212.933594 116.433594 211.964844 117.351562 210.847656 L 138.34375 187.546875 L 131.277344 187.546875 Z M 112.808594 208.207031 " fill-opacity="1" fill-rule="nonzero"/></g><g clip-path="url(#id27)"><path fill="rgb(22.749329%, 36.468506%, 100%)" d="M 103.664062 213.757812 C 104.03125 214.066406 104.421875 214.335938 104.835938 214.574219 C 105.25 214.8125 105.679688 215.011719 106.128906 215.175781 C 106.578125 215.339844 107.035156 215.460938 107.507812 215.542969 C 107.976562 215.625 108.449219 215.667969 108.925781 215.667969 C 109.40625 215.667969 109.878906 215.625 110.347656 215.542969 C 110.820312 215.460938 111.277344 215.339844 111.726562 215.175781 C 112.175781 215.011719 112.605469 214.8125 113.019531 214.574219 C 113.433594 214.335938 113.824219 214.066406 114.191406 213.757812 C 113.761719 213.734375 111.738281 213.503906 108.929688 211.59375 C 106.117188 213.503906 104.09375 213.734375 103.664062 213.757812 Z M 103.664062 213.757812 " fill-opacity="1" fill-rule="nonzero"/></g><g clip-path="url(#id28)"><path fill="rgb(22.749329%, 36.468506%, 100%)" d="M 112.808594 166.886719 L 131.277344 187.546875 L 138.34375 187.546875 L 117.355469 164.242188 C 116.433594 163.125 115.378906 162.15625 114.191406 161.332031 C 113.761719 161.359375 111.738281 161.585938 108.929688 163.496094 C 110.347656 164.480469 111.644531 165.609375 112.808594 166.886719 Z M 112.808594 166.886719 " fill-opacity="1" fill-rule="nonzero"/></g><g clip-path="url(#id29)"><path fill="rgb(22.749329%, 36.468506%, 100%)" d="M 114.191406 161.332031 C 113.824219 161.027344 113.433594 160.753906 113.019531 160.515625 C 112.605469 160.277344 112.175781 160.078125 111.726562 159.914062 C 111.277344 159.753906 110.820312 159.628906 110.347656 159.546875 C 109.878906 159.464844 109.40625 159.421875 108.925781 159.421875 C 108.449219 159.421875 107.976562 159.464844 107.507812 159.546875 C 107.035156 159.628906 106.578125 159.753906 106.128906 159.914062 C 105.679688 160.078125 105.25 160.277344 104.835938 160.515625 C 104.421875 160.753906 104.03125 161.027344 103.664062 161.332031 C 104.09375 161.359375 106.117188 161.585938 108.929688 163.496094 C 111.738281 161.585938 113.761719 161.359375 114.191406 161.332031 Z M 114.191406 161.332031 " fill-opacity="1" fill-rule="nonzero"/></g><g clip-path="url(#id30)"><g mask="url(#id31)"><g transform="matrix(1, 0, 0, 1, 85, 213)"><g clip-path="url(#id33)"><g clip-path="url(#id32)"><path fill="rgb(22.749329%, 36.468506%, 100%)" d="M 1.195312 0.761719 C 1.945312 1.390625 2.777344 1.867188 3.699219 2.195312 C 4.621094 2.523438 5.566406 2.679688 6.546875 2.667969 C 4.605469 2.546875 2.851562 1.910156 1.28125 0.757812 C 1.226562 0.761719 1.195312 0.761719 1.195312 0.761719 Z M 1.195312 0.761719 " fill-opacity="1" fill-rule="nonzero"/></g></g></g></g></g><g clip-path="url(#id34)"><g mask="url(#id35)"><g transform="matrix(1, 0, 0, 1, 90, 213)"><g clip-path="url(#id37)"><g clip-path="url(#id36)"><path fill="rgb(22.749329%, 36.468506%, 100%)" d="M 6.894531 0.761719 C 6.894531 0.761719 6.863281 0.761719 6.808594 0.757812 C 5.242188 1.910156 3.484375 2.546875 1.546875 2.667969 C 2.523438 2.679688 3.472656 2.523438 4.390625 2.195312 C 5.3125 1.867188 6.144531 1.390625 6.894531 0.761719 Z M 6.894531 0.761719 " fill-opacity="1" fill-rule="nonzero"/></g></g></g></g></g><g clip-path="url(#id38)"><g mask="url(#id39)"><g transform="matrix(1, 0, 0, 1, 85, 210)"><g clip-path="url(#id41)"><g clip-path="url(#id40)"><path fill="rgb(22.749329%, 36.468506%, 100%)" d="M 1.28125 3.757812 C 1.648438 4.066406 2.039062 4.335938 2.453125 4.574219 C 2.867188 4.8125 3.296875 5.011719 3.746094 5.175781 C 4.195312 5.339844 4.652344 5.460938 5.125 5.542969 C 5.59375 5.625 6.066406 5.667969 6.546875 5.667969 C 7.023438 5.667969 7.496094 5.625 7.964844 5.542969 C 8.4375 5.460938 8.894531 5.339844 9.34375 5.175781 C 9.792969 5.011719 10.222656 4.8125 10.636719 4.574219 C 11.050781 4.335938 11.441406 4.066406 11.808594 3.757812 C 11.378906 3.734375 9.355469 3.503906 6.546875 1.59375 C 3.734375 3.503906 1.714844 3.734375 1.28125 3.757812 Z M 1.28125 3.757812 " fill-opacity="1" fill-rule="nonzero"/></g></g></g></g></g><g clip-path="url(#id42)"><path fill="rgb(22.749329%, 36.468506%, 100%)" d="M 86.28125 213.757812 C 86.648438 214.066406 87.039062 214.335938 87.453125 214.574219 C 87.867188 214.8125 88.296875 215.011719 88.746094 215.175781 C 89.195312 215.339844 89.652344 215.460938 90.125 215.542969 C 90.59375 215.625 91.066406 215.667969 91.546875 215.667969 C 92.023438 215.667969 92.496094 215.625 92.964844 215.542969 C 93.4375 215.460938 93.894531 215.339844 94.34375 215.175781 C 94.792969 215.011719 95.222656 214.8125 95.636719 214.574219 C 96.050781 214.335938 96.441406 214.066406 96.808594 213.757812 C 96.378906 213.734375 94.355469 213.503906 91.546875 211.59375 C 88.734375 213.503906 86.714844 213.734375 86.28125 213.757812 Z M 86.28125 213.757812 " fill-opacity="1" fill-rule="nonzero"/></g><path fill="rgb(22.749329%, 36.468506%, 100%)" d="M 79.511719 187.546875 L 96.769531 206.703125 L 100.238281 202.824219 L 86.582031 187.546875 Z M 79.511719 187.546875 " fill-opacity="1" fill-rule="nonzero"/><path fill="rgb(22.749329%, 36.468506%, 100%)" d="M 86.578125 187.546875 L 79.511719 187.546875 L 96.769531 168.386719 L 100.234375 172.265625 " fill-opacity="1" fill-rule="nonzero"/><path fill="rgb(22.749329%, 36.468506%, 100%)" d="M 113.894531 187.546875 L 100.238281 202.828125 L 103.703125 206.707031 L 120.960938 187.546875 Z M 113.894531 187.546875 " fill-opacity="1" fill-rule="nonzero"/><path fill="rgb(22.749329%, 36.468506%, 100%)" d="M 95.425781 208.207031 C 94.261719 209.480469 92.964844 210.609375 91.546875 211.59375 C 94.355469 213.503906 96.378906 213.734375 96.808594 213.757812 C 97.996094 212.933594 99.050781 211.964844 99.972656 210.847656 L 100.238281 210.550781 L 96.769531 206.703125 Z M 95.425781 208.207031 " fill-opacity="1" fill-rule="nonzero"/><g mask="url(#id43)"><g transform="matrix(1, 0, 0, 1, 96, 202)"><g clip-path="url(#id45)"><g clip-path="url(#id44)"><path fill="rgb(22.749329%, 36.468506%, 100%)" d="M 4.238281 0.828125 L 0.769531 4.707031 L 4.238281 8.554688 L 7.703125 4.707031 Z M 4.238281 0.828125 " fill-opacity="1" fill-rule="nonzero"/></g></g></g></g><path fill="rgb(22.749329%, 36.468506%, 100%)" d="M 100.238281 202.828125 L 96.769531 206.707031 L 100.238281 210.554688 L 103.703125 206.707031 Z M 100.238281 202.828125 " fill-opacity="1" fill-rule="nonzero"/><path fill="rgb(22.749329%, 36.468506%, 100%)" d="M 87.664062 208.207031 L 69.195312 187.546875 L 62.128906 187.546875 L 83.121094 210.847656 C 84.039062 211.964844 85.09375 212.933594 86.28125 213.757812 C 86.710938 213.734375 88.734375 213.503906 91.546875 211.59375 C 90.125 210.609375 88.828125 209.480469 87.664062 208.207031 Z M 87.664062 208.207031 " fill-opacity="1" fill-rule="nonzero"/><path fill="rgb(22.749329%, 36.468506%, 100%)" d="M 87.664062 166.886719 C 88.828125 165.609375 90.125 164.480469 91.546875 163.496094 C 88.734375 161.585938 86.710938 161.359375 86.28125 161.332031 C 85.09375 162.15625 84.039062 163.125 83.121094 164.242188 L 62.128906 187.546875 L 69.195312 187.546875 Z M 87.664062 166.886719 " fill-opacity="1" fill-rule="nonzero"/><g clip-path="url(#id46)"><g mask="url(#id47)"><g transform="matrix(1, 0, 0, 1, 90, 159)"><g clip-path="url(#id49)"><g clip-path="url(#id48)"><path fill="rgb(22.749329%, 36.468506%, 100%)" d="M 6.894531 2.328125 C 6.144531 1.699219 5.3125 1.222656 4.390625 0.894531 C 3.472656 0.566406 2.523438 0.410156 1.546875 0.421875 C 3.488281 0.542969 5.242188 1.179688 6.808594 2.332031 C 6.863281 2.328125 6.894531 2.328125 6.894531 2.328125 Z M 6.894531 2.328125 " fill-opacity="1" fill-rule="nonzero"/></g></g></g></g></g><path fill="rgb(22.749329%, 36.468506%, 100%)" d="M 120.960938 187.546875 L 103.703125 168.386719 L 100.238281 172.265625 L 113.894531 187.546875 Z M 120.960938 187.546875 " fill-opacity="1" fill-rule="nonzero"/><g clip-path="url(#id50)"><g mask="url(#id51)"><g transform="matrix(1, 0, 0, 1, 85, 159)"><g clip-path="url(#id53)"><g clip-path="url(#id52)"><path fill="rgb(22.749329%, 36.468506%, 100%)" d="M 1.195312 2.328125 C 1.195312 2.328125 1.226562 2.328125 1.28125 2.332031 C 2.847656 1.179688 4.605469 0.542969 6.546875 0.421875 C 5.566406 0.410156 4.621094 0.566406 3.699219 0.894531 C 2.777344 1.222656 1.945312 1.699219 1.195312 2.328125 Z M 1.195312 2.328125 " fill-opacity="1" fill-rule="nonzero"/></g></g></g></g></g><path fill="rgb(22.749329%, 36.468506%, 100%)" d="M 96.808594 161.332031 C 96.378906 161.359375 94.355469 161.585938 91.546875 163.496094 C 92.964844 164.480469 94.261719 165.609375 95.425781 166.886719 L 96.769531 168.386719 L 100.238281 164.539062 L 99.972656 164.246094 C 99.050781 163.128906 97.996094 162.15625 96.808594 161.332031 Z M 96.808594 161.332031 " fill-opacity="1" fill-rule="nonzero"/><g mask="url(#id54)"><g transform="matrix(1, 0, 0, 1, 96, 163)"><g clip-path="url(#id56)"><g clip-path="url(#id55)"><path fill="rgb(22.749329%, 36.468506%, 100%)" d="M 4.238281 9.265625 L 7.703125 5.386719 L 4.238281 1.539062 L 0.769531 5.386719 Z M 4.238281 9.265625 " fill-opacity="1" fill-rule="nonzero"/></g></g></g></g><path fill="rgb(22.749329%, 36.468506%, 100%)" d="M 100.238281 172.265625 L 103.703125 168.386719 L 100.238281 164.539062 L 96.769531 168.386719 Z M 100.238281 172.265625 " fill-opacity="1" fill-rule="nonzero"/><g clip-path="url(#id57)"><g mask="url(#id58)"><g transform="matrix(1, 0, 0, 1, 85, 159)"><g clip-path="url(#id60)"><g clip-path="url(#id59)"><path fill="rgb(22.749329%, 36.468506%, 100%)" d="M 11.808594 2.332031 C 11.441406 2.027344 11.050781 1.753906 10.636719 1.515625 C 10.222656 1.277344 9.792969 1.078125 9.34375 0.914062 C 8.894531 0.753906 8.4375 0.628906 7.964844 0.546875 C 7.496094 0.464844 7.023438 0.421875 6.546875 0.421875 C 6.066406 0.421875 5.59375 0.464844 5.125 0.546875 C 4.652344 0.628906 4.195312 0.753906 3.746094 0.914062 C 3.296875 1.078125 2.867188 1.277344 2.453125 1.515625 C 2.039062 1.753906 1.648438 2.027344 1.28125 2.332031 C 1.710938 2.359375 3.734375 2.585938 6.546875 4.496094 C 9.355469 2.585938 11.378906 2.359375 11.808594 2.332031 Z M 11.808594 2.332031 " fill-opacity="1" fill-rule="nonzero"/></g></g></g></g></g><g clip-path="url(#id61)"><path fill="rgb(22.749329%, 36.468506%, 100%)" d="M 96.808594 161.332031 C 96.441406 161.027344 96.050781 160.753906 95.636719 160.515625 C 95.222656 160.277344 94.792969 160.078125 94.34375 159.914062 C 93.894531 159.753906 93.4375 159.628906 92.964844 159.546875 C 92.496094 159.464844 92.023438 159.421875 91.546875 159.421875 C 91.066406 159.421875 90.59375 159.464844 90.125 159.546875 C 89.652344 159.628906 89.195312 159.753906 88.746094 159.914062 C 88.296875 160.078125 87.867188 160.277344 87.453125 160.515625 C 87.039062 160.753906 86.648438 161.027344 86.28125 161.332031 C 86.710938 161.359375 88.734375 161.585938 91.546875 163.496094 C 94.355469 161.585938 96.378906 161.359375 96.808594 161.332031 Z M 96.808594 161.332031 " fill-opacity="1" fill-rule="nonzero"/></g><g fill="rgb(10.5896%, 14.898682%, 17.248535%)" fill-opacity="1"><g transform="translate(146.400756, 200.363072)"><g><path d="M 28.59375 -23.269531 C 25.582031 -23.269531 23.007812 -21.652344 20.476562 -19.515625 C 19.691406 -21.828125 18.03125 -23.269531 15.105469 -23.269531 C 12.003906 -23.269531 9.515625 -21.347656 7.074219 -19.253906 L 7.074219 -22.832031 L 3.316406 -22.832031 L 3.316406 0 L 7.335938 0 L 7.335938 -15.714844 C 9.125 -17.507812 11.65625 -19.601562 13.839844 -19.601562 C 16.152344 -19.601562 17.027344 -17.59375 17.027344 -14.84375 L 17.027344 0 L 21.042969 0 L 21.042969 -16.242188 C 22.832031 -17.988281 25.363281 -19.601562 27.375 -19.601562 C 29.863281 -19.601562 30.734375 -17.59375 30.734375 -14.84375 L 30.734375 0 L 34.75 0 L 34.75 -15.453125 C 34.75 -20.039062 33.136719 -23.269531 28.59375 -23.269531 Z M 28.59375 -23.269531 "/></g></g></g><g fill="rgb(10.5896%, 14.898682%, 17.248535%)" fill-opacity="1"><g transform="translate(184.160087, 200.363072)"><g><path d="M 11.351562 -23.269531 C 4.058594 -23.269531 2.488281 -18.992188 2.488281 -14.058594 L 2.488281 -8.339844 C 2.488281 -3.625 3.84375 0.347656 9.910156 0.347656 C 13.011719 0.347656 15.890625 -1.570312 18.25 -3.535156 L 18.25 0 L 22.003906 0 L 22.003906 -21.917969 C 19.558594 -22.660156 15.238281 -23.269531 11.351562 -23.269531 Z M 6.503906 -8.296875 L 6.503906 -14.1875 C 6.503906 -16.023438 6.503906 -19.863281 12.050781 -19.863281 C 13.882812 -19.863281 16.328125 -19.601562 17.988281 -19.296875 L 17.988281 -7.160156 C 15.933594 -5.0625 13.273438 -3.054688 10.695312 -3.054688 C 7.203125 -3.054688 6.503906 -5.542969 6.503906 -8.296875 Z M 6.503906 -8.296875 "/></g></g></g><g fill="rgb(10.5896%, 14.898682%, 17.248535%)" fill-opacity="1"><g transform="translate(209.478491, 200.363072)"><g><path d="M 17.679688 0 L 22.046875 0 L 16.285156 -11.789062 L 21.4375 -22.789062 L 17.113281 -22.789062 L 12.964844 -13.316406 L 10.214844 -13.316406 L 6.070312 -22.789062 L 1.746094 -22.789062 L 6.855469 -11.789062 L 1.089844 0 L 5.457031 0 L 10.171875 -9.867188 L 13.011719 -9.867188 Z M 17.679688 0 "/></g></g></g><g fill="rgb(10.5896%, 14.898682%, 17.248535%)" fill-opacity="1"><g transform="translate(232.657925, 200.363072)"><g><path d="M 11.480469 -27.109375 C 12.398438 -27.109375 13.707031 -26.9375 14.757812 -26.761719 L 14.886719 -29.863281 C 13.578125 -30.167969 11.308594 -30.386719 10.085938 -30.386719 C 5.0625 -30.386719 4.496094 -27.417969 4.496094 -24.492188 L 4.496094 -22.832031 L 1.089844 -22.832031 L 1.089844 -19.382812 L 4.496094 -19.382812 L 4.496094 0 L 8.511719 0 L 8.511719 -19.382812 L 14.144531 -19.382812 L 14.144531 -22.832031 L 8.511719 -22.832031 L 8.511719 -23.835938 C 8.511719 -25.933594 8.992188 -27.109375 11.480469 -27.109375 Z M 11.480469 -27.109375 "/></g></g></g><g fill="rgb(10.5896%, 14.898682%, 17.248535%)" fill-opacity="1"><g transform="translate(246.975913, 200.363072)"><g><path d="M 3.316406 0 L 7.378906 0 L 7.378906 -29.425781 L 3.316406 -29.425781 Z M 3.316406 0 "/></g></g></g><g fill="rgb(10.5896%, 14.898682%, 17.248535%)" fill-opacity="1"><g transform="translate(257.67076, 200.363072)"><g><path d="M 3.273438 -29.949219 L 3.273438 -25.363281 L 7.378906 -25.363281 L 7.378906 -29.949219 Z M 3.316406 0 L 7.378906 0 L 7.378906 -22.832031 L 3.316406 -22.832031 Z M 3.316406 0 "/></g></g></g><g fill="rgb(10.5896%, 14.898682%, 17.248535%)" fill-opacity="1"><g transform="translate(268.365606, 200.363072)"><g><path d="M 17.679688 0 L 22.046875 0 L 16.285156 -11.789062 L 21.4375 -22.789062 L 17.113281 -22.789062 L 12.964844 -13.316406 L 10.214844 -13.316406 L 6.070312 -22.789062 L 1.746094 -22.789062 L 6.855469 -11.789062 L 1.089844 0 L 5.457031 0 L 10.171875 -9.867188 L 13.011719 -9.867188 Z M 17.679688 0 "/></g></g></g></svg>