<svg xmlns="http://www.w3.org/2000/svg" xmlns:xlink="http://www.w3.org/1999/xlink" width="500" zoomAndPan="magnify" viewBox="0 0 375 374.999991" height="500" preserveAspectRatio="xMidYMid meet" version="1.0"><defs><g/><clipPath id="id1"><path d="M 98 142 L 162.304688 142 L 162.304688 192 L 98 192 Z M 98 142 " clip-rule="nonzero"/></clipPath><clipPath id="id2"><path d="M 44 119.742188 L 96 119.742188 L 96 184 L 44 184 Z M 44 119.742188 " clip-rule="nonzero"/></clipPath><clipPath id="id3"><path d="M 19.804688 171 L 81 171 L 81 231 L 19.804688 231 Z M 19.804688 171 " clip-rule="nonzero"/></clipPath><clipPath id="id4"><path d="M 47 203 L 115 203 L 115 254.742188 L 47 254.742188 Z M 47 203 " clip-rule="nonzero"/></clipPath></defs><g clip-path="url(#id1)"><path fill="rgb(22.749329%, 31.759644%, 36.859131%)" d="M 102.179688 190.765625 C 112.558594 197.609375 162.296875 171.3125 162.296875 171.3125 C 162.296875 171.3125 120.292969 176.234375 109.644531 168.492188 C 104.070312 164.4375 99.832031 142.773438 99.832031 142.773438 C 99.832031 142.773438 94.921875 185.980469 102.179688 190.765625 " fill-opacity="1" fill-rule="nonzero"/></g><g clip-path="url(#id2)"><path fill="rgb(31.759644%, 67.83905%, 89.7995%)" d="M 91.046875 182.710938 C 100.785156 174.996094 91.046875 119.753906 91.046875 119.753906 C 91.046875 119.753906 82.769531 161.0625 72.085938 168.753906 C 66.492188 172.785156 44.496094 170.101562 44.496094 170.101562 C 44.496094 170.101562 84.234375 188.105469 91.046875 182.710938 " fill-opacity="1" fill-rule="nonzero"/></g><g clip-path="url(#id3)"><path fill="rgb(74.508667%, 90.19928%, 100%)" d="M 79.914062 190.765625 C 75.554688 179.15625 19.796875 171.3125 19.796875 171.3125 C 19.796875 171.3125 56.683594 191.917969 60.730469 204.414062 C 62.847656 210.960938 53.492188 230.964844 53.492188 230.964844 C 53.492188 230.964844 82.960938 198.886719 79.914062 190.765625 " fill-opacity="1" fill-rule="nonzero"/></g><g clip-path="url(#id4)"><path fill="rgb(100%, 100%, 100%)" d="M 84.164062 203.800781 C 71.734375 204.34375 47.011719 254.734375 47.011719 254.734375 C 47.011719 254.734375 78.085938 226.160156 91.269531 226.191406 C 98.175781 226.207031 114.386719 241.253906 114.386719 241.253906 C 114.386719 241.253906 92.859375 203.425781 84.164062 203.800781 " fill-opacity="1" fill-rule="nonzero"/></g><g fill="rgb(100%, 100%, 100%)" fill-opacity="1"><g transform="translate(132.192754, 240.600954)"><g><path d="M 29.34375 0 L 29.34375 -28.71875 L 29 -28.71875 L 23.390625 0 L 16.203125 0 L 10.703125 -28.71875 L 10.25 -28.71875 L 10.25 0 L 2.953125 0 L 2.953125 -38.96875 L 14.734375 -38.96875 L 19.828125 -12.015625 L 20.21875 -12.015625 L 25.265625 -38.96875 L 36.875 -38.96875 L 36.875 0 Z M 29.34375 0 "/></g></g></g><g fill="rgb(100%, 100%, 100%)" fill-opacity="1"><g transform="translate(172.578271, 240.600954)"><g><path d="M 20 0 L 18.46875 -7.984375 L 9.75 -7.984375 L 8.21875 0 L 0.453125 0 L 8.5 -38.96875 L 19.875 -38.96875 L 27.921875 0 Z M 14.28125 -31.609375 L 13.9375 -31.609375 L 10.875 -14.734375 L 17.28125 -14.734375 Z M 14.28125 -31.609375 "/></g></g></g><g fill="rgb(100%, 100%, 100%)" fill-opacity="1"><g transform="translate(201.522193, 240.600954)"><g><path d="M 19.3125 0 L 14.28125 -13.984375 L 13.828125 -13.984375 L 8.84375 0 L 0.6875 0 L 8.84375 -19.59375 L 0.796875 -38.96875 L 9.171875 -38.96875 L 14.109375 -25.546875 L 14.5 -25.546875 L 19.421875 -38.96875 L 27.578125 -38.96875 L 19.65625 -19.828125 L 27.75 0 Z M 19.3125 0 "/></g></g></g><g fill="rgb(100%, 100%, 100%)" fill-opacity="1"><g transform="translate(230.466119, 240.600954)"><g><path d="M 2.953125 0 L 2.953125 -38.96875 L 21.015625 -38.96875 L 21.015625 -32.109375 L 10.765625 -32.109375 L 10.765625 -22.203125 L 19.765625 -22.203125 L 19.765625 -15.34375 L 10.765625 -15.34375 L 10.765625 0 Z M 2.953125 0 "/></g></g></g><g fill="rgb(100%, 100%, 100%)" fill-opacity="1"><g transform="translate(253.236108, 240.600954)"><g><path d="M 2.953125 0 L 2.953125 -38.96875 L 10.765625 -38.96875 L 10.765625 -7.078125 L 20.625 -7.078125 L 20.625 0 Z M 2.953125 0 "/></g></g></g><g fill="rgb(100%, 100%, 100%)" fill-opacity="1"><g transform="translate(275.269758, 240.600954)"><g><path d="M 3 0 L 3 -38.96875 L 10.765625 -38.96875 L 10.765625 0 Z M 3 0 "/></g></g></g><g fill="rgb(100%, 100%, 100%)" fill-opacity="1"><g transform="translate(289.600152, 240.600954)"><g><path d="M 19.3125 0 L 14.28125 -13.984375 L 13.828125 -13.984375 L 8.84375 0 L 0.6875 0 L 8.84375 -19.59375 L 0.796875 -38.96875 L 9.171875 -38.96875 L 14.109375 -25.546875 L 14.5 -25.546875 L 19.421875 -38.96875 L 27.578125 -38.96875 L 19.65625 -19.828125 L 27.75 0 Z M 19.3125 0 "/></g></g></g><g fill="rgb(74.508667%, 90.19928%, 100%)" fill-opacity="1"><g transform="translate(267.626658, 193.503774)"><g><path d="M 1.125 0 L 1.125 -12.96875 L 6.25 -12.96875 C 7.226562 -12.96875 8.0625 -12.78125 8.75 -12.40625 C 9.445312 -12.03125 9.976562 -11.507812 10.34375 -10.84375 C 10.707031 -10.1875 10.890625 -9.429688 10.890625 -8.578125 C 10.890625 -7.710938 10.703125 -6.953125 10.328125 -6.296875 C 9.960938 -5.640625 9.425781 -5.125 8.71875 -4.75 C 8.019531 -4.382812 7.171875 -4.203125 6.171875 -4.203125 L 3.875 -4.203125 L 3.875 0 Z M 3.875 -6.40625 L 5.734375 -6.40625 C 6.515625 -6.40625 7.097656 -6.601562 7.484375 -7 C 7.867188 -7.40625 8.0625 -7.929688 8.0625 -8.578125 C 8.0625 -9.222656 7.867188 -9.738281 7.484375 -10.125 C 7.097656 -10.519531 6.507812 -10.71875 5.71875 -10.71875 L 3.875 -10.71875 Z M 3.875 -6.40625 "/></g></g></g><g fill="rgb(74.508667%, 90.19928%, 100%)" fill-opacity="1"><g transform="translate(279.884221, 193.503774)"><g><path d="M 1.125 0 L 1.125 -12.96875 L 6.25 -12.96875 C 7.71875 -12.96875 8.859375 -12.582031 9.671875 -11.8125 C 10.484375 -11.039062 10.890625 -10.015625 10.890625 -8.734375 C 10.890625 -7.847656 10.691406 -7.085938 10.296875 -6.453125 C 9.898438 -5.828125 9.332031 -5.359375 8.59375 -5.046875 L 11.34375 0 L 8.328125 0 L 5.875 -4.59375 L 3.875 -4.59375 L 3.875 0 Z M 3.875 -6.796875 L 5.734375 -6.796875 C 7.285156 -6.796875 8.0625 -7.441406 8.0625 -8.734375 C 8.0625 -10.054688 7.28125 -10.71875 5.71875 -10.71875 L 3.875 -10.71875 Z M 3.875 -6.796875 "/></g></g></g><g fill="rgb(74.508667%, 90.19928%, 100%)" fill-opacity="1"><g transform="translate(292.293689, 193.503774)"><g><path d="M 3.875 -12.96875 L 3.875 0 L 1.125 0 L 1.125 -12.96875 Z M 3.875 -12.96875 "/></g></g></g><g fill="rgb(74.508667%, 90.19928%, 100%)" fill-opacity="1"><g transform="translate(298.007065, 193.503774)"><g><path d="M 1.125 -12.96875 L 4.5 -12.96875 L 8.078125 -4.25 L 8.234375 -4.25 L 11.796875 -12.96875 L 15.1875 -12.96875 L 15.1875 0 L 12.515625 0 L 12.515625 -8.4375 L 12.421875 -8.4375 L 9.0625 -0.0625 L 7.25 -0.0625 L 3.890625 -8.46875 L 3.78125 -8.46875 L 3.78125 0 L 1.125 0 Z M 1.125 -12.96875 "/></g></g></g><g fill="rgb(74.508667%, 90.19928%, 100%)" fill-opacity="1"><g transform="translate(315.188595, 193.503774)"><g><path d="M 1.125 0 L 1.125 -12.96875 L 9.859375 -12.96875 L 9.859375 -10.703125 L 3.875 -10.703125 L 3.875 -7.609375 L 9.421875 -7.609375 L 9.421875 -5.359375 L 3.875 -5.359375 L 3.875 -2.265625 L 9.890625 -2.265625 L 9.890625 0 Z M 1.125 0 "/></g></g></g></svg>